<svg width="24" height="24" viewBox="0 0 24 24" fill="none" xmlns="http://www.w3.org/2000/svg">
<g id="Alert Bell Notification 2">
<path id="Vector" d="M9.125 21.75C9.25202 22.1827 9.51576 22.5626 9.87675 22.8328C10.2377 23.1031 10.6766 23.2492 11.1275 23.2492C11.5784 23.2492 12.0173 23.1031 12.3782 22.8328C12.7392 22.5626 13.003 22.1827 13.13 21.75" stroke="#111A39" stroke-width="1.5" stroke-linecap="round" stroke-linejoin="round"/>
<path id="Vector_2" d="M11.125 3V0.75" stroke="#111A39" stroke-width="1.5" stroke-linecap="round" stroke-linejoin="round"/>
<path id="Vector_3" d="M18.648 11.961C18.837 17.717 20.125 18.75 20.125 18.75H2.125C2.125 18.75 3.625 16.834 3.625 10.5C3.62612 9.32502 3.90303 8.16672 4.43344 7.11829C4.96385 6.06986 5.73296 5.16057 6.67887 4.46358C7.62479 3.7666 8.7211 3.30138 9.8796 3.10536C11.0381 2.90934 12.2264 2.98799 13.349 3.33499" stroke="#111A39" stroke-width="1.5" stroke-linecap="round" stroke-linejoin="round"/>
<path id="Vector_4" d="M3.602 11.961C3.413 17.717 2.125 18.75 2.125 18.75H20.125C20.125 18.75 18.625 16.834 18.625 10.5C18.6239 9.32502 18.347 8.16672 17.8166 7.11829C17.2861 6.06986 16.517 5.16057 15.5711 4.46358C14.6252 3.7666 13.5289 3.30138 12.3704 3.10536C11.2119 2.90934 10.0236 2.98799 8.901 3.33499" stroke="#111A39" stroke-width="1.5" stroke-linecap="round" stroke-linejoin="round"/>
</g>
</svg>
